<svg width="222" height="55" viewBox="0 0 222 55" fill="none" xmlns="http://www.w3.org/2000/svg">
<path d="M86.2692 36L84.1882 28.7273H85.8679L87.0717 33.7805H87.1321L88.4602 28.7273H89.8984L91.223 33.7912H91.2869L92.4908 28.7273H94.1705L92.0895 36H90.5909L89.206 31.245H89.1491L87.7678 36H86.2692ZM96.8649 36.1065C96.3038 36.1065 95.8208 35.9929 95.416 35.7656C95.0136 35.536 94.7034 35.2116 94.4856 34.7926C94.2678 34.3712 94.1589 33.8729 94.1589 33.2976C94.1589 32.7365 94.2678 32.2441 94.4856 31.8203C94.7034 31.3965 95.01 31.0663 95.4054 30.8295C95.8031 30.5928 96.2695 30.4744 96.8045 30.4744C97.1644 30.4744 97.4993 30.5324 97.8095 30.6484C98.122 30.7621 98.3942 30.9337 98.6262 31.1634C98.8606 31.393 99.0429 31.6818 99.1731 32.0298C99.3033 32.3755 99.3684 32.7803 99.3684 33.2443V33.6598H94.7626V32.7223H97.9444C97.9444 32.5045 97.8971 32.3116 97.8024 32.1435C97.7077 31.9754 97.5763 31.844 97.4082 31.7493C97.2425 31.6522 97.0495 31.6037 96.8294 31.6037C96.5997 31.6037 96.3961 31.657 96.2186 31.7635C96.0434 31.8677 95.9061 32.0085 95.8066 32.1861C95.7072 32.3613 95.6563 32.5566 95.6539 32.772V33.6634C95.6539 33.9332 95.7037 34.1664 95.8031 34.3629C95.9049 34.5594 96.0481 34.7109 96.2328 34.8175C96.4174 34.924 96.6364 34.9773 96.8897 34.9773C97.0578 34.9773 97.2117 34.9536 97.3514 34.9062C97.4911 34.8589 97.6106 34.7879 97.71 34.6932C97.8095 34.5985 97.8852 34.4825 97.9373 34.3452L99.3365 34.4375C99.2654 34.7737 99.1199 35.0672 98.8997 35.3182C98.6819 35.5668 98.4002 35.7609 98.0545 35.9006C97.7112 36.0379 97.3147 36.1065 96.8649 36.1065ZM101.911 36.103C101.563 36.103 101.253 36.0426 100.981 35.9219C100.708 35.7988 100.493 35.6177 100.334 35.3786C100.178 35.1371 100.1 34.8364 100.1 34.4766C100.1 34.1735 100.156 33.919 100.267 33.7131C100.378 33.5071 100.53 33.3414 100.721 33.2159C100.913 33.0904 101.131 32.9957 101.375 32.9318C101.621 32.8679 101.879 32.8229 102.149 32.7969C102.466 32.7637 102.722 32.733 102.916 32.7045C103.11 32.6738 103.251 32.6288 103.339 32.5696C103.426 32.5104 103.47 32.4228 103.47 32.3068V32.2855C103.47 32.0606 103.399 31.8866 103.257 31.7635C103.117 31.6404 102.918 31.5788 102.66 31.5788C102.388 31.5788 102.171 31.6392 102.01 31.7599C101.849 31.8783 101.743 32.0275 101.691 32.2074L100.292 32.0938C100.363 31.7623 100.502 31.4759 100.711 31.2344C100.919 30.9905 101.188 30.8035 101.517 30.6733C101.848 30.5407 102.232 30.4744 102.667 30.4744C102.97 30.4744 103.26 30.5099 103.537 30.581C103.817 30.652 104.064 30.7621 104.28 30.9112C104.497 31.0604 104.669 31.2521 104.795 31.4865C104.92 31.7185 104.983 31.9967 104.983 32.321V36H103.548V35.2436H103.506C103.418 35.4141 103.301 35.5644 103.154 35.6946C103.007 35.8224 102.831 35.9231 102.625 35.9964C102.419 36.0675 102.181 36.103 101.911 36.103ZM102.344 35.0589C102.567 35.0589 102.763 35.0152 102.934 34.9276C103.104 34.8376 103.238 34.7169 103.335 34.5653C103.432 34.4138 103.481 34.2422 103.481 34.0504V33.4716C103.433 33.5024 103.368 33.5308 103.285 33.5568C103.205 33.5805 103.114 33.603 103.012 33.6243C102.91 33.6432 102.808 33.661 102.706 33.6776C102.605 33.6918 102.512 33.7048 102.43 33.7166C102.252 33.7427 102.097 33.7841 101.964 33.8409C101.832 33.8977 101.729 33.9747 101.655 34.0717C101.582 34.1664 101.545 34.2848 101.545 34.4268C101.545 34.6328 101.62 34.7902 101.769 34.8991C101.921 35.0057 102.112 35.0589 102.344 35.0589ZM107.669 28.7273V36H106.156V28.7273H107.669ZM111.782 30.5455V31.6818H108.498V30.5455H111.782ZM109.243 29.2386H110.756V34.3239C110.756 34.4635 110.777 34.5724 110.82 34.6506C110.863 34.7263 110.922 34.7796 110.998 34.8104C111.076 34.8411 111.166 34.8565 111.267 34.8565C111.338 34.8565 111.409 34.8506 111.48 34.8388C111.551 34.8246 111.606 34.8139 111.644 34.8068L111.882 35.9325C111.806 35.9562 111.699 35.9834 111.562 36.0142C111.425 36.0473 111.258 36.0675 111.061 36.0746C110.697 36.0888 110.377 36.0402 110.103 35.929C109.83 35.8177 109.618 35.6449 109.467 35.4105C109.315 35.1761 109.241 34.8802 109.243 34.5227V29.2386ZM114.398 32.8466V36H112.885V28.7273H114.355V31.5078H114.419C114.542 31.1858 114.741 30.9337 115.016 30.7514C115.29 30.5668 115.635 30.4744 116.049 30.4744C116.428 30.4744 116.758 30.5573 117.04 30.723C117.324 30.8864 117.544 31.1219 117.7 31.4297C117.859 31.7351 117.937 32.1009 117.935 32.527V36H116.422V32.7969C116.424 32.4607 116.339 32.1991 116.166 32.0121C115.996 31.825 115.757 31.7315 115.449 31.7315C115.243 31.7315 115.061 31.7753 114.902 31.8629C114.746 31.9505 114.623 32.0784 114.533 32.2464C114.445 32.4122 114.4 32.6122 114.398 32.8466ZM121.468 36V28.7273H124.337C124.889 28.7273 125.359 28.8326 125.747 29.0433C126.135 29.2517 126.431 29.5417 126.635 29.9134C126.841 30.2827 126.944 30.7088 126.944 31.1918C126.944 31.6747 126.84 32.1009 126.631 32.4702C126.423 32.8395 126.121 33.1271 125.726 33.3331C125.333 33.5391 124.857 33.642 124.298 33.642H122.469V32.4098H124.05C124.346 32.4098 124.589 32.3589 124.781 32.2571C124.975 32.1529 125.12 32.0097 125.214 31.8274C125.312 31.6428 125.36 31.4309 125.36 31.1918C125.36 30.9503 125.312 30.7396 125.214 30.5597C125.12 30.3774 124.975 30.2365 124.781 30.1371C124.587 30.0353 124.341 29.9844 124.043 29.9844H123.006V36H121.468ZM127.914 36V30.5455H129.381V31.4972H129.438C129.537 31.1586 129.704 30.9029 129.938 30.7301C130.173 30.5549 130.443 30.4673 130.748 30.4673C130.824 30.4673 130.905 30.4721 130.993 30.4815C131.081 30.491 131.158 30.504 131.224 30.5206V31.8629C131.153 31.8416 131.055 31.8227 130.929 31.8061C130.804 31.7895 130.689 31.7812 130.585 31.7812C130.362 31.7812 130.163 31.8298 129.988 31.9268C129.815 32.0215 129.678 32.1541 129.576 32.3246C129.477 32.495 129.427 32.6915 129.427 32.9141V36H127.914ZM134.217 36.1065C133.665 36.1065 133.188 35.9893 132.786 35.755C132.385 35.5182 132.076 35.1892 131.859 34.7678C131.641 34.344 131.532 33.8527 131.532 33.294C131.532 32.7306 131.641 32.2382 131.859 31.8168C132.076 31.393 132.385 31.0639 132.786 30.8295C133.188 30.5928 133.665 30.4744 134.217 30.4744C134.768 30.4744 135.244 30.5928 135.644 30.8295C136.047 31.0639 136.357 31.393 136.575 31.8168C136.792 32.2382 136.901 32.7306 136.901 33.294C136.901 33.8527 136.792 34.344 136.575 34.7678C136.357 35.1892 136.047 35.5182 135.644 35.755C135.244 35.9893 134.768 36.1065 134.217 36.1065ZM134.224 34.9347C134.475 34.9347 134.684 34.8636 134.852 34.7216C135.02 34.5772 135.147 34.3807 135.232 34.1321C135.32 33.8835 135.364 33.6006 135.364 33.2834C135.364 32.9661 135.32 32.6832 135.232 32.4347C135.147 32.1861 135.02 31.9896 134.852 31.8452C134.684 31.7008 134.475 31.6286 134.224 31.6286C133.97 31.6286 133.757 31.7008 133.585 31.8452C133.414 31.9896 133.285 32.1861 133.197 32.4347C133.112 32.6832 133.07 32.9661 133.07 33.2834C133.07 33.6006 133.112 33.8835 133.197 34.1321C133.285 34.3807 133.414 34.5772 133.585 34.7216C133.757 34.8636 133.97 34.9347 134.224 34.9347ZM140.786 30.5455V31.6818H137.501V30.5455H140.786ZM138.247 29.2386H139.76V34.3239C139.76 34.4635 139.781 34.5724 139.824 34.6506C139.866 34.7263 139.926 34.7796 140.001 34.8104C140.08 34.8411 140.17 34.8565 140.271 34.8565C140.342 34.8565 140.413 34.8506 140.484 34.8388C140.555 34.8246 140.61 34.8139 140.648 34.8068L140.886 35.9325C140.81 35.9562 140.703 35.9834 140.566 36.0142C140.429 36.0473 140.262 36.0675 140.065 36.0746C139.701 36.0888 139.381 36.0402 139.107 35.929C138.834 35.8177 138.622 35.6449 138.471 35.4105C138.319 35.1761 138.245 34.8802 138.247 34.5227V29.2386ZM144.199 36.1065C143.638 36.1065 143.155 35.9929 142.75 35.7656C142.348 35.536 142.037 35.2116 141.82 34.7926C141.602 34.3712 141.493 33.8729 141.493 33.2976C141.493 32.7365 141.602 32.2441 141.82 31.8203C142.037 31.3965 142.344 31.0663 142.739 30.8295C143.137 30.5928 143.603 30.4744 144.138 30.4744C144.498 30.4744 144.833 30.5324 145.143 30.6484C145.456 30.7621 145.728 30.9337 145.96 31.1634C146.195 31.393 146.377 31.6818 146.507 32.0298C146.637 32.3755 146.702 32.7803 146.702 33.2443V33.6598H142.097V32.7223H145.278C145.278 32.5045 145.231 32.3116 145.136 32.1435C145.042 31.9754 144.91 31.844 144.742 31.7493C144.576 31.6522 144.384 31.6037 144.163 31.6037C143.934 31.6037 143.73 31.657 143.553 31.7635C143.377 31.8677 143.24 32.0085 143.141 32.1861C143.041 32.3613 142.99 32.5566 142.988 32.772V33.6634C142.988 33.9332 143.038 34.1664 143.137 34.3629C143.239 34.5594 143.382 34.7109 143.567 34.8175C143.751 34.924 143.97 34.9773 144.224 34.9773C144.392 34.9773 144.546 34.9536 144.685 34.9062C144.825 34.8589 144.945 34.7879 145.044 34.6932C145.143 34.5985 145.219 34.4825 145.271 34.3452L146.67 34.4375C146.599 34.7737 146.454 35.0672 146.234 35.3182C146.016 35.5668 145.734 35.7609 145.388 35.9006C145.045 36.0379 144.649 36.1065 144.199 36.1065ZM150.154 36.1065C149.595 36.1065 149.115 35.9882 148.712 35.7514C148.312 35.5123 148.004 35.1809 147.789 34.7571C147.576 34.3333 147.469 33.8456 147.469 33.294C147.469 32.7353 147.577 32.2453 147.793 31.8239C148.01 31.4001 148.319 31.0698 148.719 30.8331C149.12 30.594 149.595 30.4744 150.147 30.4744C150.623 30.4744 151.04 30.5608 151.397 30.7337C151.754 30.9065 152.037 31.1491 152.246 31.4616C152.454 31.7741 152.569 32.1411 152.59 32.5625H151.163C151.122 32.2902 151.016 32.0713 150.843 31.9055C150.673 31.7375 150.449 31.6534 150.172 31.6534C149.938 31.6534 149.733 31.7173 149.558 31.8452C149.385 31.9706 149.25 32.1541 149.153 32.3956C149.056 32.6371 149.007 32.9295 149.007 33.2727C149.007 33.6207 149.054 33.9167 149.149 34.1605C149.246 34.4044 149.382 34.5902 149.558 34.718C149.733 34.8459 149.938 34.9098 150.172 34.9098C150.345 34.9098 150.5 34.8743 150.637 34.8033C150.777 34.7322 150.892 34.6293 150.982 34.4943C151.074 34.357 151.134 34.1925 151.163 34.0007H152.59C152.567 34.4174 152.453 34.7843 152.249 35.1016C152.048 35.4164 151.77 35.6626 151.415 35.8402C151.06 36.0178 150.639 36.1065 150.154 36.1065ZM156.46 30.5455V31.6818H153.175V30.5455H156.46ZM153.921 29.2386H155.434V34.3239C155.434 34.4635 155.455 34.5724 155.498 34.6506C155.54 34.7263 155.599 34.7796 155.675 34.8104C155.753 34.8411 155.843 34.8565 155.945 34.8565C156.016 34.8565 156.087 34.8506 156.158 34.8388C156.229 34.8246 156.284 34.8139 156.322 34.8068L156.559 35.9325C156.484 35.9562 156.377 35.9834 156.24 36.0142C156.103 36.0473 155.936 36.0675 155.739 36.0746C155.375 36.0888 155.055 36.0402 154.78 35.929C154.508 35.8177 154.296 35.6449 154.145 35.4105C153.993 35.1761 153.919 34.8802 153.921 34.5227V29.2386ZM157.445 36V30.5455H158.958V36H157.445ZM158.205 29.8423C157.981 29.8423 157.788 29.7678 157.627 29.6186C157.468 29.4671 157.389 29.286 157.389 29.0753C157.389 28.867 157.468 28.6882 157.627 28.5391C157.788 28.3875 157.981 28.3118 158.205 28.3118C158.43 28.3118 158.622 28.3875 158.781 28.5391C158.942 28.6882 159.022 28.867 159.022 29.0753C159.022 29.286 158.942 29.4671 158.781 29.6186C158.622 29.7678 158.43 29.8423 158.205 29.8423ZM162.635 36.1065C162.083 36.1065 161.606 35.9893 161.203 35.755C160.803 35.5182 160.494 35.1892 160.277 34.7678C160.059 34.344 159.95 33.8527 159.95 33.294C159.95 32.7306 160.059 32.2382 160.277 31.8168C160.494 31.393 160.803 31.0639 161.203 30.8295C161.606 30.5928 162.083 30.4744 162.635 30.4744C163.186 30.4744 163.662 30.5928 164.062 30.8295C164.465 31.0639 164.775 31.393 164.993 31.8168C165.21 32.2382 165.319 32.7306 165.319 33.294C165.319 33.8527 165.21 34.344 164.993 34.7678C164.775 35.1892 164.465 35.5182 164.062 35.755C163.662 35.9893 163.186 36.1065 162.635 36.1065ZM162.642 34.9347C162.893 34.9347 163.102 34.8636 163.27 34.7216C163.438 34.5772 163.565 34.3807 163.65 34.1321C163.738 33.8835 163.782 33.6006 163.782 33.2834C163.782 32.9661 163.738 32.6832 163.65 32.4347C163.565 32.1861 163.438 31.9896 163.27 31.8452C163.102 31.7008 162.893 31.6286 162.642 31.6286C162.388 31.6286 162.175 31.7008 162.002 31.8452C161.832 31.9896 161.703 32.1861 161.615 32.4347C161.53 32.6832 161.488 32.9661 161.488 33.2834C161.488 33.6006 161.53 33.8835 161.615 34.1321C161.703 34.3807 161.832 34.5772 162.002 34.7216C162.175 34.8636 162.388 34.9347 162.642 34.9347ZM167.816 32.8466V36H166.303V30.5455H167.745V31.5078H167.809C167.929 31.1906 168.132 30.9396 168.416 30.755C168.7 30.5679 169.044 30.4744 169.449 30.4744C169.828 30.4744 170.158 30.5573 170.44 30.723C170.722 30.8887 170.941 31.1255 171.097 31.4332C171.253 31.7386 171.331 32.1032 171.331 32.527V36H169.819V32.7969C169.821 32.4631 169.736 32.2027 169.563 32.0156C169.39 31.8262 169.152 31.7315 168.849 31.7315C168.645 31.7315 168.466 31.7753 168.309 31.8629C168.155 31.9505 168.035 32.0784 167.947 32.2464C167.862 32.4122 167.818 32.6122 167.816 32.8466Z" fill="#BCB8B8"/>
<path fill-rule="evenodd" clip-rule="evenodd" d="M88.9112 10.3525V7.66719H95.7071V14.0163C95.0471 14.6687 94.0901 15.2431 92.8362 15.7395C91.6237 16.2279 90.332 16.4805 89.0281 16.4841C87.3945 16.4841 85.9706 16.1345 84.7564 15.4353C83.5573 14.7528 82.5994 13.703 82.0186 12.4347C81.4024 11.1085 81.0894 9.65726 81.1031 8.19006C81.0749 6.65113 81.4265 5.12962 82.1256 3.76521C82.7982 2.48408 83.8442 1.447 85.1193 0.796816C86.1201 0.26742 87.3662 0.00271842 88.8577 0.00271842C90.7968 0.00271842 92.3113 0.417578 93.4013 1.24731C94.4981 2.08798 95.2483 3.31481 95.5055 4.68851L92.3734 5.28626C92.1792 4.54228 91.7413 3.88828 91.1323 3.43267C90.4661 2.96161 89.668 2.72334 88.8577 2.75363C87.48 2.75363 86.3845 3.19947 85.5714 4.09115C84.7582 4.98283 84.3517 6.30555 84.3518 8.05929C84.3518 9.95092 84.7637 11.3697 85.5873 12.3157C86.411 13.2617 87.4906 13.7347 88.8259 13.7346C89.5067 13.7305 90.1807 13.5959 90.8126 13.3376C91.4251 13.1024 92.001 12.7783 92.5226 12.3755V10.3525H88.9112ZM96.5933 10.2765C96.5968 9.24765 96.8493 8.2356 97.3284 7.33C97.7922 6.4082 98.518 5.65037 99.4111 5.15551C100.335 4.64901 101.371 4.39086 102.421 4.40545C104.132 4.40545 105.535 4.97268 106.629 6.10713C107.722 7.24159 108.269 8.67483 108.269 10.4068C108.269 12.1537 107.717 13.6015 106.613 14.7502C105.508 15.8989 104.118 16.4733 102.443 16.4734C101.412 16.4749 100.396 16.229 99.476 15.7556C98.5607 15.3025 97.8093 14.5661 97.3294 13.6517C96.8386 12.728 96.5933 11.6029 96.5933 10.2765ZM99.6615 10.4394C99.6615 11.5848 99.928 12.4618 100.461 13.0704C100.706 13.3572 101.008 13.5872 101.348 13.7447C101.687 13.9023 102.056 13.9838 102.429 13.9838C102.802 13.9838 103.171 13.9023 103.51 13.7447C103.85 13.5872 104.152 13.3572 104.397 13.0704C104.927 12.4618 105.192 11.5775 105.191 10.4177C105.191 9.28726 104.927 8.41757 104.397 7.80863C104.152 7.52184 103.85 7.2919 103.51 7.13433C103.171 6.97676 102.802 6.89523 102.429 6.89523C102.056 6.89523 101.687 6.97676 101.348 7.13433C101.008 7.2919 100.706 7.52184 100.461 7.80863C99.9279 8.41731 99.6613 9.29425 99.6615 10.4394ZM109.304 16.2125V0.274341H112.297V16.2125H109.304ZM124.432 16.2125H121.651V14.5164C121.233 15.1369 120.672 15.643 120.017 15.9898C119.429 16.3017 118.777 16.4675 118.115 16.4734C116.816 16.4734 115.702 15.9389 114.776 14.8699C113.849 13.8009 113.385 12.3097 113.386 10.3962C113.386 8.43897 113.836 6.95154 114.737 5.93388C115.163 5.43979 115.69 5.04691 116.281 4.78295C116.872 4.51899 117.512 4.39039 118.157 4.40623C119.422 4.40623 120.515 4.94261 121.439 6.01537V0.274341H124.432V16.2125ZM116.442 10.1895C116.442 11.4218 116.609 12.3133 116.943 12.864C117.425 13.6612 118.1 14.0597 118.967 14.0597C119.308 14.0592 119.644 13.9779 119.949 13.8223C120.254 13.6666 120.519 13.441 120.724 13.163C121.207 12.5648 121.449 11.6714 121.449 10.4829C121.449 9.15663 121.214 8.20176 120.745 7.6183C120.533 7.33973 120.26 7.11554 119.947 6.9636C119.635 6.81166 119.292 6.73616 118.946 6.74311C118.603 6.73903 118.264 6.81478 117.955 6.96458C117.646 7.11439 117.374 7.33428 117.161 7.60744C116.682 8.18366 116.442 9.04436 116.442 10.1895ZM132.625 12.5371L135.608 13.0481C135.288 14.0754 134.651 14.9697 133.792 15.5977C132.964 16.181 131.929 16.4727 130.686 16.4729C128.719 16.4729 127.263 15.8169 126.318 14.505C125.573 13.4542 125.2 12.1278 125.2 10.5258C125.2 8.61242 125.69 7.11393 126.67 6.03031C127.138 5.50194 127.712 5.08306 128.354 4.80247C128.996 4.52188 129.69 4.38624 130.388 4.40487C132.071 4.40487 133.399 4.9721 134.372 6.10655C135.345 7.24101 135.81 8.97872 135.768 11.3197H128.268C128.289 12.2257 128.531 12.9306 128.992 13.4344C129.21 13.6789 129.477 13.8728 129.775 14.0032C130.072 14.1335 130.394 14.1972 130.718 14.1899C131.145 14.2038 131.563 14.0654 131.901 13.7986C132.265 13.4645 132.518 13.0241 132.627 12.5377L132.625 12.5371ZM132.796 9.44978C132.775 8.56521 132.551 7.89264 132.124 7.43205C131.928 7.21091 131.688 7.03495 131.42 6.91592C131.151 6.79688 130.861 6.7375 130.569 6.74175C130.263 6.73437 129.959 6.79582 129.68 6.92172C129.4 7.04761 129.151 7.23485 128.95 7.47008C128.524 7.95589 128.315 8.61553 128.322 9.44901H132.796L132.796 9.44978ZM146.755 16.2125H143.76V10.3199C143.76 9.07359 143.696 8.26721 143.569 7.90078C143.457 7.5554 143.238 7.2561 142.946 7.04713C142.639 6.83844 142.276 6.73206 141.907 6.74272C141.409 6.73651 140.921 6.8884 140.512 7.17731C140.11 7.45342 139.811 7.85962 139.664 8.33013C139.512 8.8087 139.436 9.69288 139.436 10.9827V16.2125H136.441V4.6664H139.222V6.36246C140.208 5.05766 141.451 4.40532 142.95 4.40545C143.572 4.39766 144.189 4.52168 144.761 4.76961C145.246 4.96567 145.674 5.28579 146.002 5.69913C146.284 6.07986 146.484 6.51712 146.588 6.98213C146.716 7.65899 146.771 8.34791 146.754 9.03692L146.755 16.2125ZM152.456 11.0265L155.524 10.7219C155.708 11.7733 156.083 12.5454 156.647 13.038C157.212 13.5307 157.974 13.7771 158.932 13.7772C159.948 13.7772 160.713 13.5579 161.228 13.1193C161.463 12.9402 161.656 12.7083 161.789 12.4416C161.923 12.175 161.995 11.8805 162 11.581C162.009 11.2309 161.894 10.8892 161.675 10.6189C161.459 10.3544 161.08 10.1242 160.541 9.92841C160.172 9.79777 159.33 9.56586 158.016 9.23268C156.326 8.80585 155.14 8.2804 154.458 7.65632C154.002 7.26214 153.637 6.77042 153.388 6.21611C153.139 5.6618 153.014 5.05851 153.02 4.44911C153.019 3.63838 153.255 2.84567 153.696 2.1712C154.171 1.44468 154.85 0.881852 155.645 0.557012C156.623 0.163253 157.668 -0.0252808 158.719 0.00271842C160.679 0.00271842 162.155 0.441193 163.145 1.31813C164.136 2.19507 164.656 3.36561 164.707 4.82976L161.553 4.97099C161.418 4.15187 161.129 3.56298 160.685 3.20432C160.241 2.84565 159.575 2.66626 158.687 2.66613C157.771 2.66613 157.054 2.8582 156.536 3.24234C156.378 3.35143 156.249 3.49918 156.162 3.67205C156.074 3.84492 156.031 4.03738 156.035 4.2318C156.036 4.41876 156.078 4.60315 156.159 4.77086C156.24 4.93856 156.358 5.08513 156.503 5.19935C156.901 5.54029 157.867 5.8954 159.401 6.26467C160.935 6.63395 162.069 7.01628 162.804 7.41168C163.513 7.78206 164.11 8.342 164.53 9.03149C164.967 9.80151 165.183 10.6812 165.153 11.5701C165.154 12.481 164.895 13.3724 164.408 14.136C163.904 14.9387 163.167 15.5603 162.298 15.9133C161.389 16.3013 160.257 16.4954 158.9 16.4954C156.926 16.4954 155.41 16.0297 154.351 15.0985C153.293 14.1672 152.661 12.8099 152.456 11.0265ZM173.486 16.2125V14.4838C173.074 15.1009 172.515 15.602 171.862 15.9409C171.206 16.2923 170.477 16.4754 169.736 16.4744C169.023 16.4861 168.318 16.3101 167.691 15.9636C167.109 15.6473 166.648 15.1419 166.381 14.5279C166.111 13.9119 165.976 13.0602 165.976 11.9727V4.6664H168.969V9.97186C168.969 11.5955 169.024 12.5903 169.134 12.9562C169.234 13.3067 169.446 13.6131 169.736 13.8261C170.063 14.0507 170.451 14.1631 170.845 14.1468C171.335 14.1533 171.816 14.0032 172.218 13.7175C172.599 13.4615 172.891 13.0884 173.049 12.6524C173.198 12.2285 173.273 11.1902 173.273 9.53748V4.6664H176.266V16.2125H173.486ZM178.057 3.10072V0.274341H181.051V3.10091L178.057 3.10072ZM178.057 16.2125V4.6664H181.051V16.2125H178.057ZM182.191 12.9181L185.196 12.451C185.287 12.9827 185.563 13.4632 185.973 13.8044C186.363 14.1125 186.91 14.2665 187.614 14.2665C188.388 14.2665 188.97 14.1215 189.361 13.8316C189.487 13.7388 189.589 13.616 189.657 13.474C189.726 13.332 189.759 13.175 189.755 13.0167C189.758 12.9112 189.741 12.806 189.705 12.7071C189.668 12.6083 189.613 12.5177 189.542 12.4407C189.393 12.2956 189.059 12.1614 188.541 12.0381C186.126 11.4949 184.595 10.9984 183.949 10.5487C183.524 10.2707 183.177 9.88525 182.942 9.42983C182.707 8.9744 182.591 8.46462 182.607 7.95025C182.602 7.46787 182.704 6.9905 182.905 6.55378C183.106 6.11705 183.401 5.73225 183.769 5.42809C184.542 4.74697 185.743 4.40629 187.369 4.40603C188.918 4.40603 190.068 4.6633 190.821 5.17782C191.593 5.72141 192.146 6.5327 192.375 7.46057L189.553 7.99332C189.453 7.57579 189.209 7.20895 188.865 6.9604C188.528 6.72125 188.047 6.60167 187.422 6.60167C186.634 6.60167 186.069 6.71401 185.728 6.93867C185.623 7.00342 185.537 7.09443 185.478 7.20293C185.418 7.31143 185.387 7.43377 185.387 7.55816C185.388 7.66839 185.416 7.77657 185.468 7.87324C185.52 7.9699 185.595 8.0521 185.685 8.11265C185.955 8.31572 186.887 8.60208 188.481 8.97174C190.076 9.34139 191.189 9.79409 191.821 10.3298C192.446 10.8731 192.758 11.6306 192.758 12.6023C192.758 13.6602 192.325 14.5697 191.459 15.3309C190.593 16.0921 189.311 16.4726 187.613 16.4725C186.072 16.4725 184.852 16.1535 183.954 15.5156C183.072 14.9013 182.444 13.9761 182.191 12.9181ZM192.579 12.9181L195.584 12.451C195.675 12.9827 195.951 13.4631 196.361 13.8044C196.752 14.1125 197.298 14.2665 198.002 14.2665C198.776 14.2665 199.358 14.1215 199.749 13.8316C199.875 13.7388 199.977 13.616 200.045 13.474C200.114 13.332 200.148 13.175 200.143 13.0167C200.147 12.9112 200.13 12.806 200.093 12.7071C200.057 12.6083 200.001 12.5177 199.93 12.4407C199.781 12.2956 199.447 12.1614 198.929 12.0381C196.514 11.4949 194.983 10.9984 194.337 10.5487C193.912 10.2708 193.565 9.88532 193.33 9.42989C193.095 8.97445 192.979 8.46464 192.995 7.95025C192.99 7.46787 193.092 6.9905 193.293 6.55378C193.494 6.11705 193.789 5.73225 194.157 5.42809C194.93 4.74697 196.131 4.40629 197.758 4.40603C199.306 4.40603 200.457 4.6633 201.209 5.17782C201.982 5.72151 202.535 6.53301 202.764 7.46115L199.941 7.99392C199.842 7.57642 199.598 7.20959 199.254 6.96098C198.917 6.72183 198.436 6.60225 197.811 6.60225C197.022 6.60225 196.457 6.71459 196.116 6.93925C196.012 7.00397 195.926 7.09497 195.866 7.20348C195.806 7.31199 195.775 7.43434 195.775 7.55874C195.777 7.66897 195.805 7.77715 195.857 7.87382C195.909 7.97048 195.983 8.05268 196.074 8.11323C196.343 8.3163 197.275 8.60266 198.87 8.97232C200.464 9.34197 201.578 9.79467 202.21 10.3304C202.834 10.8736 203.147 11.6311 203.147 12.6029C203.147 13.6608 202.714 14.5703 201.848 15.3315C200.981 16.0926 199.699 16.4732 198.001 16.473C196.46 16.473 195.241 16.1541 194.343 15.5162C193.46 14.9019 192.832 13.9764 192.579 12.9181ZM211.01 12.5377L213.994 13.0487C213.674 14.076 213.037 14.9704 212.177 15.5982C211.35 16.1816 210.315 16.4733 209.072 16.4734C207.104 16.4734 205.648 15.8175 204.704 14.5056C203.958 13.4548 203.586 12.1284 203.586 10.5264C203.586 8.61301 204.076 7.11451 205.056 6.03089C205.524 5.50259 206.098 5.08377 206.74 4.80318C207.382 4.5226 208.075 4.38691 208.774 4.40545C210.457 4.40545 211.785 4.97268 212.758 6.10713C213.731 7.24159 214.196 8.9793 214.153 11.3203H206.653C206.675 12.2263 206.916 12.9312 207.377 13.435C207.595 13.6795 207.862 13.8734 208.159 14.0038C208.457 14.1341 208.779 14.1978 209.103 14.1905C209.53 14.2044 209.948 14.066 210.285 13.7992C210.649 13.4651 210.902 13.0244 211.01 12.5377ZM211.182 9.45036C211.161 8.56579 210.937 7.89322 210.511 7.43263C210.306 7.21153 210.058 7.03607 209.784 6.91735C209.509 6.79863 209.213 6.73922 208.915 6.74286C208.617 6.74651 208.322 6.81313 208.05 6.93853C207.779 7.06393 207.535 7.24538 207.336 7.47143C206.91 7.95724 206.7 8.61688 206.707 9.45036H211.182ZM219.502 0.00193688C219.934 0.00282635 220.358 0.115536 220.735 0.32944C221.126 0.545772 221.448 0.872036 221.662 1.26943C221.882 1.65677 221.998 2.0961 221.999 2.54357C222.001 2.99104 221.887 3.431 221.669 3.81953C221.454 4.2157 221.134 4.5421 220.746 4.76108C220.367 4.98227 219.939 5.09866 219.502 5.09866C219.066 5.09866 218.637 4.98227 218.259 4.76108C217.87 4.54214 217.55 4.21573 217.336 3.81953C217.118 3.43103 217.004 2.9911 217.005 2.54363C217.006 2.09616 217.123 1.6568 217.342 1.26943C217.557 0.872075 217.879 0.545831 218.27 0.32944C218.647 0.115759 219.071 0.00253906 219.502 0.00193688ZM219.506 0.500942C219.16 0.501662 218.82 0.592065 218.518 0.763636C218.204 0.937876 217.945 1.19994 217.773 1.51893C217.596 1.83062 217.502 2.18421 217.501 2.5444C217.5 2.90459 217.591 3.25877 217.767 3.57159C217.939 3.89058 218.196 4.15359 218.508 4.33037C218.812 4.50906 219.156 4.60313 219.506 4.60313C219.857 4.60313 220.201 4.50906 220.505 4.33037C220.817 4.15292 221.073 3.89008 221.246 3.57159C221.422 3.25908 221.515 2.90488 221.514 2.54458C221.513 2.18427 221.419 1.83055 221.241 1.51893C221.069 1.19957 220.81 0.937431 220.495 0.763636C220.192 0.592372 219.852 0.501603 219.506 0.500942ZM218.374 3.9144V1.21025H218.912C219.417 1.21025 219.699 1.21245 219.76 1.21685C219.904 1.22314 220.046 1.26 220.175 1.32511C220.28 1.38703 220.365 1.47672 220.423 1.58451C220.49 1.70242 220.524 1.83645 220.522 1.97253C220.526 2.15784 220.459 2.33734 220.335 2.47308C220.195 2.61951 220.008 2.71082 219.809 2.73093C219.875 2.7544 219.938 2.78866 219.994 2.8324C220.061 2.89532 220.121 2.965 220.174 3.04037C220.193 3.06702 220.258 3.17696 220.369 3.3702L220.682 3.91595H220.017L219.796 3.47671C219.707 3.26921 219.581 3.0803 219.424 2.91951C219.316 2.83988 219.185 2.7995 219.052 2.80484H218.912V3.91595H218.374L218.374 3.9144ZM218.912 2.37743H219.131C219.324 2.38684 219.518 2.37455 219.709 2.34077C219.78 2.31918 219.842 2.27472 219.886 2.2141C219.93 2.15349 219.953 2.07999 219.952 2.00473C219.953 1.93232 219.931 1.86158 219.889 1.80335C219.843 1.74254 219.78 1.69826 219.708 1.67705C219.517 1.64204 219.324 1.62902 219.131 1.63824H218.912V2.37743Z" fill="white"/>
<path d="M54.9845 26.246H26.2462V28.7501H54.9845V26.246Z" fill="white"/>
<path d="M20.5224 26.246H0.0120323V28.7501H20.5224V26.246Z" fill="white"/>
<path d="M28.7504 34.474H26.2462V54.9845H28.7504V34.474Z" fill="white"/>
<path d="M28.7504 0.0116204H26.2462V20.5221H28.7504V0.0116204Z" fill="white"/>
<path d="M21.7094 31.5205L0.00160654 53.2285L1.75766 54.9845L23.4655 33.2765L21.7094 31.5205Z" fill="white"/>
<path d="M53.2264 0L31.5186 21.708L33.2746 23.464L54.9825 1.75606L53.2264 0Z" fill="white"/>
<path d="M33.2762 31.5188L31.5202 33.2749L53.228 54.9829L54.9841 53.2268L33.2762 31.5188Z" fill="white"/>
<path d="M1.75605 0.00162565L0 1.75769L21.7078 23.4657L23.4639 21.7096L1.75605 0.00162565Z" fill="white"/>
</svg>
