<svg width="48" height="30" viewBox="0 0 48 30" fill="none" xmlns="http://www.w3.org/2000/svg">
<path d="M32.25 0C30.2802 -2.93527e-08 28.3296 0.387986 26.5097 1.14181C24.6899 1.89563 23.0363 3.00052 21.6434 4.3934C20.2505 5.78628 19.1456 7.43986 18.3918 9.25975C17.638 11.0796 17.25 13.0302 17.25 15C17.25 16.9698 17.638 18.9204 18.3918 20.7403C19.1456 22.5601 20.2505 24.2137 21.6434 25.6066C23.0363 26.9995 24.6899 28.1044 26.5097 28.8582C28.3296 29.612 30.2802 30 32.25 30C34.2198 30 36.1704 29.612 37.9902 28.8582C39.8101 28.1044 41.4637 26.9995 42.8566 25.6066C44.2495 24.2137 45.3544 22.5601 46.1082 20.7403C46.862 18.9204 47.25 16.9698 47.25 15C47.25 13.0302 46.862 11.0796 46.1082 9.25975C45.3544 7.43986 44.2495 5.78628 42.8566 4.3934C41.4637 3.00052 39.8101 1.89563 37.9902 1.14181C36.1704 0.387986 34.2198 -2.93527e-08 32.25 0Z" fill="#FF9800"/>
<path d="M15 0C13.0302 -2.93527e-08 11.0796 0.387986 9.25975 1.14181C7.43986 1.89563 5.78628 3.00052 4.3934 4.3934C3.00052 5.78628 1.89563 7.43986 1.14181 9.25975C0.387987 11.0796 0 13.0302 0 15C0 16.9698 0.387987 18.9204 1.14181 20.7403C1.89563 22.5601 3.00052 24.2137 4.3934 25.6066C5.78628 26.9995 7.43986 28.1044 9.25975 28.8582C11.0796 29.612 13.0302 30 15 30C16.9698 30 18.9204 29.612 20.7403 28.8582C22.5601 28.1044 24.2137 26.9995 25.6066 25.6066C26.9995 24.2137 28.1044 22.5601 28.8582 20.7403C29.612 18.9204 30 16.9698 30 15C30 13.0302 29.612 11.0796 28.8582 9.25975C28.1044 7.43986 26.9995 5.78628 25.6066 4.3934C24.2137 3.00052 22.5601 1.89563 20.7403 1.14181C18.9204 0.387986 16.9698 -2.93527e-08 15 0Z" fill="#D50000"/>
<path d="M17.25 15C17.25 20.281 19.7745 24.9401 23.625 27.75C27.4755 24.9401 30 20.281 30 15C30 9.71897 27.4755 5.05989 23.625 2.25C19.7745 5.05989 17.25 9.71897 17.25 15Z" fill="#FF3D00"/>
</svg>
