<svg width="50" height="50" viewBox="0 0 50 50" fill="none" xmlns="http://www.w3.org/2000/svg">
<path d="M25 0C11.2058 0 0 11.2058 0 25C0 38.7942 11.2058 50 25 50C38.7942 50 50 38.7942 50 25C50 11.2058 38.7942 0 25 0ZM23.9168 2.29331V13.0532C21.1357 12.9876 18.4916 12.6766 16.0531 12.1668C16.4825 10.8661 16.9705 9.65729 17.5129 8.5724C19.3033 4.99153 21.5742 2.81209 23.9168 2.29331ZM26.0832 2.29331C28.4258 2.81209 30.6967 4.99153 32.4871 8.5724C33.0313 9.66075 33.5207 10.874 33.9511 12.1795C31.5156 12.6842 28.8679 12.989 26.0832 13.0532V2.29331ZM18.6871 3.05492C17.5114 4.28656 16.463 5.82744 15.575 7.60345C14.9562 8.84116 14.4133 10.2066 13.9397 11.6633C11.8132 11.09 9.8902 10.3687 8.22967 9.53076C11.0242 6.50214 14.6134 4.22235 18.6871 3.05492ZM31.3129 3.05492C35.3826 4.22122 38.9685 6.49807 41.7619 9.5223C40.1259 10.3756 38.205 11.105 36.0667 11.6802C35.5918 10.2171 35.0462 8.84595 34.425 7.60345C33.537 5.82744 32.4886 4.28656 31.3129 3.05492ZM43.1793 11.2148C45.8842 14.7783 47.584 19.1471 47.8061 23.9168H38.013C37.934 20.2802 37.4692 16.8467 36.6739 13.7704C39.1043 13.1129 41.295 12.2513 43.1793 11.2148ZM6.80799 11.2317C8.71272 12.2431 10.907 13.0945 13.3304 13.7514C12.5321 16.8324 12.0662 20.2729 11.987 23.9168H2.19387C2.41568 19.1546 4.11063 14.7921 6.80799 11.2317ZM15.4417 14.2612C18.0764 14.8218 20.9241 15.1557 23.9168 15.2217V23.9168H14.1533C14.2339 20.4369 14.6889 17.1602 15.4417 14.2612ZM34.5625 14.276C35.3131 17.1714 35.7662 20.4428 35.8467 23.9168H26.0832V15.2217C29.0776 15.1575 31.9286 14.8314 34.5625 14.276ZM2.19387 26.0832H11.987C12.066 29.7198 12.5308 33.1533 13.3261 36.2296C10.8957 36.8871 8.70503 37.7487 6.82068 38.7852C4.11584 35.2217 2.41603 30.8529 2.19387 26.0832ZM14.1533 26.0832H23.9168V34.7783C20.9224 34.8425 18.0714 35.1686 15.4375 35.724C14.6869 32.8286 14.2338 29.5572 14.1533 26.0832ZM26.0832 26.0832H35.8467C35.7661 29.5631 35.3111 32.8398 34.5583 35.7388C31.9236 35.1782 29.0759 34.8443 26.0832 34.7783V26.0832ZM38.013 26.0832H47.8061C47.5843 30.8454 45.8894 35.2079 43.192 38.7683C41.2873 37.7569 39.093 36.9055 36.6696 36.2486C37.4679 33.1676 37.9338 29.7271 38.013 26.0832ZM23.9168 36.9468V47.7067C21.5742 47.1879 19.3033 45.0085 17.5129 41.4276C16.9687 40.3392 16.4793 39.126 16.0489 37.8205C18.4843 37.3158 21.1321 37.011 23.9168 36.9468ZM26.0832 36.9468C28.8643 37.0124 31.5084 37.3234 33.9469 37.8332C33.5175 39.1339 33.0295 40.3427 32.4871 41.4276C30.6967 45.0085 28.4258 47.1879 26.0832 47.7067V36.9468ZM13.9333 38.3198C14.4082 39.7829 14.9538 41.154 15.575 42.3965C16.463 44.1726 17.5114 45.7134 18.6871 46.9451C14.6174 45.7788 11.0315 43.5019 8.23813 40.4777C9.87413 39.6244 11.795 38.895 13.9333 38.3198ZM36.0603 38.3367C38.1868 38.91 40.1098 39.6313 41.7703 40.4692C38.9758 43.4979 35.3866 45.7776 31.3129 46.9451C32.4886 45.7134 33.537 44.1726 34.425 42.3965C35.0438 41.1588 35.5867 39.7934 36.0603 38.3367Z" fill="white"/>
</svg>
